<?xml version="1.0" standalone="no"?>
<!DOCTYPE svg PUBLIC "-//W3C//DTD SVG 20010904//EN"
 "http://www.w3.org/TR/2001/REC-SVG-20010904/DTD/svg10.dtd">
<svg version="1.0" xmlns="http://www.w3.org/2000/svg"
 width="500.000000pt" height="500.000000pt" viewBox="0 0 500.000000 500.000000"
 preserveAspectRatio="xMidYMid meet">

<g transform="translate(0.000000,500.000000) scale(0.100000,-0.100000)"
fill="#000000" stroke="none">
<path d="M760 2500 l0 -480 1740 0 1740 0 0 480 0 480 -1740 0 -1740 0 0 -480z
m3450 0 l0 -450 -1715 0 -1715 0 0 450 0 450 1715 0 1715 0 0 -450z"/>
<path d="M850 2500 l0 -390 820 0 820 0 0 390 0 390 -820 0 -820 0 0 -390z
m749 132 c49 -26 73 -75 68 -135 -13 -150 -234 -169 -267 -23 -10 44 2 100 27
128 42 47 116 60 172 30z m-294 -17 c18 -17 25 -35 25 -63 0 -53 -31 -81 -98
-89 l-52 -6 0 -38 c0 -32 -3 -39 -20 -39 -19 0 -20 7 -20 130 l0 130 70 0 c62
0 74 -3 95 -25z m614 8 c12 -10 24 -35 28 -55 5 -32 1 -41 -25 -67 -25 -26
-28 -33 -17 -48 49 -73 49 -73 24 -73 -17 0 -32 12 -52 45 -23 37 -34 45 -58
45 -28 0 -29 -2 -29 -45 0 -38 -3 -45 -20 -45 -19 0 -20 7 -20 130 l0 130 74
0 c55 0 79 -4 95 -17z m311 2 c0 -11 -12 -15 -45 -15 l-45 0 0 -115 c0 -108
-1 -115 -20 -115 -19 0 -20 7 -20 115 l0 115 -45 0 c-33 0 -45 4 -45 15 0 12
19 15 110 15 91 0 110 -3 110 -15z"/>
<path d="M1482 2600 c-36 -15 -57 -75 -42 -122 32 -107 190 -79 190 34 0 75
-73 118 -148 88z"/>
<path d="M1180 2555 l0 -55 36 0 c54 0 74 15 74 55 0 40 -20 55 -74 55 l-36 0
0 -55z"/>
<path d="M1790 2560 l0 -50 44 0 c48 0 76 19 76 50 0 27 -38 50 -82 50 l-38 0
0 -50z"/>
<path d="M3115 2640 c-73 -16 -111 -69 -103 -145 8 -71 49 -107 125 -113 49
-3 64 0 93 20 66 45 77 138 22 199 -30 34 -86 50 -137 39z m76 -78 c26 -22 31
-75 8 -97 -26 -26 -63 -28 -92 -5 -33 26 -35 65 -5 97 26 28 58 29 89 5z"/>
<path d="M3778 2640 c-90 -16 -136 -119 -88 -197 25 -41 68 -63 122 -63 86 0
145 64 135 148 -9 79 -81 127 -169 112z m81 -86 c27 -35 26 -59 -4 -89 -28
-29 -55 -32 -83 -7 -35 29 -38 67 -8 96 33 34 69 33 95 0z"/>
<path d="M2810 2510 l0 -130 35 0 c34 0 35 1 35 40 l0 40 45 0 c43 0 45 1 45
30 0 29 -2 30 -45 30 -43 0 -45 1 -45 30 0 29 1 30 50 30 49 0 50 1 50 30 l0
30 -85 0 -85 0 0 -130z"/>
<path d="M3337 2633 c-9 -8 -9 -216 -1 -237 5 -13 23 -16 90 -16 l84 0 0 35 0
35 -50 0 -50 0 0 95 0 95 -33 0 c-19 0 -37 -3 -40 -7z"/>
<path d="M3552 2513 l3 -128 38 -3 37 -3 0 130 0 131 -41 0 -41 0 4 -127z"/>
</g>
</svg>
